solid OpenSCAD_Model
  facet normal 1 -0 0
    outer loop
      vertex -23 67 3
      vertex -23 68 0
      vertex -23 68 3
    endloop
  endfacet
  facet normal 1 0 0
    outer loop
      vertex -23 68 0
      vertex -23 67 3
      vertex -23 67 0
    endloop
  endfacet
  facet normal -1 0 0
    outer loop
      vertex -19 67 0
      vertex -19 68 3
      vertex -19 68 0
    endloop
  endfacet
  facet normal -1 -0 0
    outer loop
      vertex -19 68 3
      vertex -19 67 0
      vertex -19 67 3
    endloop
  endfacet
  facet normal 0 -1 0
    outer loop
      vertex -23 68 0
      vertex -19 68 3
      vertex -23 68 3
    endloop
  endfacet
  facet normal 0 -1 -0
    outer loop
      vertex -19 68 3
      vertex -23 68 0
      vertex -19 68 0
    endloop
  endfacet
  facet normal 0 1 -0
    outer loop
      vertex -19 67 0
      vertex -23 67 3
      vertex -19 67 3
    endloop
  endfacet
  facet normal 0 1 0
    outer loop
      vertex -23 67 3
      vertex -19 67 0
      vertex -23 67 0
    endloop
  endfacet
  facet normal 1 -0 0
    outer loop
      vertex -23 77 3
      vertex -23 78 0
      vertex -23 78 3
    endloop
  endfacet
  facet normal 1 0 0
    outer loop
      vertex -23 78 0
      vertex -23 77 3
      vertex -23 77 0
    endloop
  endfacet
  facet normal -1 0 0
    outer loop
      vertex -19 77 0
      vertex -19 78 3
      vertex -19 78 0
    endloop
  endfacet
  facet normal -1 -0 0
    outer loop
      vertex -19 78 3
      vertex -19 77 0
      vertex -19 77 3
    endloop
  endfacet
  facet normal 0 1 -0
    outer loop
      vertex -19 77 0
      vertex -23 77 3
      vertex -19 77 3
    endloop
  endfacet
  facet normal 0 1 0
    outer loop
      vertex -23 77 3
      vertex -19 77 0
      vertex -23 77 0
    endloop
  endfacet
  facet normal 0 -1 0
    outer loop
      vertex -23 78 0
      vertex -19 78 3
      vertex -23 78 3
    endloop
  endfacet
  facet normal 0 -1 -0
    outer loop
      vertex -19 78 3
      vertex -23 78 0
      vertex -19 78 0
    endloop
  endfacet
  facet normal 1 -0 0
    outer loop
      vertex -15 77 3
      vertex -15 78 0
      vertex -15 78 3
    endloop
  endfacet
  facet normal 1 0 0
    outer loop
      vertex -15 78 0
      vertex -15 77 3
      vertex -15 77 0
    endloop
  endfacet
  facet normal -1 0 0
    outer loop
      vertex -11 77 0
      vertex -11 78 3
      vertex -11 78 0
    endloop
  endfacet
  facet normal -1 -0 0
    outer loop
      vertex -11 78 3
      vertex -11 77 0
      vertex -11 77 3
    endloop
  endfacet
  facet normal 0 1 -0
    outer loop
      vertex -11 77 0
      vertex -15 77 3
      vertex -11 77 3
    endloop
  endfacet
  facet normal 0 1 0
    outer loop
      vertex -15 77 3
      vertex -11 77 0
      vertex -15 77 0
    endloop
  endfacet
  facet normal 0 -1 0
    outer loop
      vertex -15 78 0
      vertex -11 78 3
      vertex -15 78 3
    endloop
  endfacet
  facet normal 0 -1 -0
    outer loop
      vertex -11 78 3
      vertex -15 78 0
      vertex -11 78 0
    endloop
  endfacet
  facet normal 1 -0 0
    outer loop
      vertex -15 67 3
      vertex -15 68 0
      vertex -15 68 3
    endloop
  endfacet
  facet normal 1 0 0
    outer loop
      vertex -15 68 0
      vertex -15 67 3
      vertex -15 67 0
    endloop
  endfacet
  facet normal -1 0 0
    outer loop
      vertex -11 67 0
      vertex -11 68 3
      vertex -11 68 0
    endloop
  endfacet
  facet normal -1 -0 0
    outer loop
      vertex -11 68 3
      vertex -11 67 0
      vertex -11 67 3
    endloop
  endfacet
  facet normal 0 1 -0
    outer loop
      vertex -11 67 0
      vertex -15 67 3
      vertex -11 67 3
    endloop
  endfacet
  facet normal 0 1 0
    outer loop
      vertex -15 67 3
      vertex -11 67 0
      vertex -15 67 0
    endloop
  endfacet
  facet normal 0 -1 0
    outer loop
      vertex -15 68 0
      vertex -11 68 3
      vertex -15 68 3
    endloop
  endfacet
  facet normal 0 -1 -0
    outer loop
      vertex -11 68 3
      vertex -15 68 0
      vertex -11 68 0
    endloop
  endfacet
  facet normal 1 -0 0
    outer loop
      vertex 11 67 3
      vertex 11 68 0
      vertex 11 68 3
    endloop
  endfacet
  facet normal 1 0 0
    outer loop
      vertex 11 68 0
      vertex 11 67 3
      vertex 11 67 0
    endloop
  endfacet
  facet normal -1 0 0
    outer loop
      vertex 15 67 0
      vertex 15 68 3
      vertex 15 68 0
    endloop
  endfacet
  facet normal -1 -0 0
    outer loop
      vertex 15 68 3
      vertex 15 67 0
      vertex 15 67 3
    endloop
  endfacet
  facet normal 0 -1 0
    outer loop
      vertex 11 68 0
      vertex 15 68 3
      vertex 11 68 3
    endloop
  endfacet
  facet normal 0 -1 -0
    outer loop
      vertex 15 68 3
      vertex 11 68 0
      vertex 15 68 0
    endloop
  endfacet
  facet normal 0 1 -0
    outer loop
      vertex 15 67 0
      vertex 11 67 3
      vertex 15 67 3
    endloop
  endfacet
  facet normal 0 1 0
    outer loop
      vertex 11 67 3
      vertex 15 67 0
      vertex 11 67 0
    endloop
  endfacet
  facet normal 1 -0 0
    outer loop
      vertex 11 77 3
      vertex 11 78 0
      vertex 11 78 3
    endloop
  endfacet
  facet normal 1 0 0
    outer loop
      vertex 11 78 0
      vertex 11 77 3
      vertex 11 77 0
    endloop
  endfacet
  facet normal -1 0 0
    outer loop
      vertex 15 77 0
      vertex 15 78 3
      vertex 15 78 0
    endloop
  endfacet
  facet normal -1 -0 0
    outer loop
      vertex 15 78 3
      vertex 15 77 0
      vertex 15 77 3
    endloop
  endfacet
  facet normal 0 1 -0
    outer loop
      vertex 15 77 0
      vertex 11 77 3
      vertex 15 77 3
    endloop
  endfacet
  facet normal 0 1 0
    outer loop
      vertex 11 77 3
      vertex 15 77 0
      vertex 11 77 0
    endloop
  endfacet
  facet normal 0 -1 0
    outer loop
      vertex 11 78 0
      vertex 15 78 3
      vertex 11 78 3
    endloop
  endfacet
  facet normal 0 -1 -0
    outer loop
      vertex 15 78 3
      vertex 11 78 0
      vertex 15 78 0
    endloop
  endfacet
  facet normal 1 -0 0
    outer loop
      vertex 19 77 3
      vertex 19 78 0
      vertex 19 78 3
    endloop
  endfacet
  facet normal 1 0 0
    outer loop
      vertex 19 78 0
      vertex 19 77 3
      vertex 19 77 0
    endloop
  endfacet
  facet normal -1 0 0
    outer loop
      vertex 23 77 0
      vertex 23 78 3
      vertex 23 78 0
    endloop
  endfacet
  facet normal -1 -0 0
    outer loop
      vertex 23 78 3
      vertex 23 77 0
      vertex 23 77 3
    endloop
  endfacet
  facet normal 0 1 -0
    outer loop
      vertex 23 77 0
      vertex 19 77 3
      vertex 23 77 3
    endloop
  endfacet
  facet normal 0 1 0
    outer loop
      vertex 19 77 3
      vertex 23 77 0
      vertex 19 77 0
    endloop
  endfacet
  facet normal 0 -1 0
    outer loop
      vertex 19 78 0
      vertex 23 78 3
      vertex 19 78 3
    endloop
  endfacet
  facet normal 0 -1 -0
    outer loop
      vertex 23 78 3
      vertex 19 78 0
      vertex 23 78 0
    endloop
  endfacet
  facet normal 1 -0 0
    outer loop
      vertex 19 67 3
      vertex 19 68 0
      vertex 19 68 3
    endloop
  endfacet
  facet normal 1 0 0
    outer loop
      vertex 19 68 0
      vertex 19 67 3
      vertex 19 67 0
    endloop
  endfacet
  facet normal -1 0 0
    outer loop
      vertex 23 67 0
      vertex 23 68 3
      vertex 23 68 0
    endloop
  endfacet
  facet normal -1 -0 0
    outer loop
      vertex 23 68 3
      vertex 23 67 0
      vertex 23 67 3
    endloop
  endfacet
  facet normal 0 1 -0
    outer loop
      vertex 23 67 0
      vertex 19 67 3
      vertex 23 67 3
    endloop
  endfacet
  facet normal 0 1 0
    outer loop
      vertex 19 67 3
      vertex 23 67 0
      vertex 19 67 0
    endloop
  endfacet
  facet normal 0 -1 0
    outer loop
      vertex 19 68 0
      vertex 23 68 3
      vertex 19 68 3
    endloop
  endfacet
  facet normal 0 -1 -0
    outer loop
      vertex 23 68 3
      vertex 19 68 0
      vertex 23 68 0
    endloop
  endfacet
  facet normal -1.94811e-06 -0.499999 0.866026
    outer loop
      vertex 47 12.6795 7.32051
      vertex 44.921 8.14345 4.70162
      vertex 45 7.93301 4.58013
    endloop
  endfacet
  facet normal 3.86328e-07 -0.5 0.866025
    outer loop
      vertex 47 12.6795 7.32051
      vertex 44.809 8.44205 4.87402
      vertex 44.921 8.14345 4.70162
    endloop
  endfacet
  facet normal 3.26797e-07 -0.5 0.866025
    outer loop
      vertex 47 12.6795 7.32051
      vertex 44.309 8.75665 5.05566
      vertex 44.809 8.44205 4.87402
    endloop
  endfacet
  facet normal 0 -0.5 0.866025
    outer loop
      vertex 47 12.6795 7.32051
      vertex 43.691 8.75665 5.05566
      vertex 44.309 8.75665 5.05566
    endloop
  endfacet
  facet normal 7.63043e-07 -0.500001 0.866025
    outer loop
      vertex 47 12.6795 7.32051
      vertex 43.191 8.44205 4.87402
      vertex 43.691 8.75665 5.05566
    endloop
  endfacet
  facet normal -4.66398e-07 -0.500001 0.866025
    outer loop
      vertex 29.0843 12.6795 7.32051
      vertex 43.079 8.14345 4.70162
      vertex 43.191 8.44205 4.87402
    endloop
  endfacet
  facet normal 4.9555e-07 -0.499999 0.866026
    outer loop
      vertex 43.079 8.14345 4.70162
      vertex 29.0843 12.6795 7.32051
      vertex 43 7.93301 4.58013
    endloop
  endfacet
  facet normal 2.30497e-08 -0.5 0.866025
    outer loop
      vertex 29.0843 12.6795 7.32051
      vertex 43.191 8.44205 4.87402
      vertex 47 12.6795 7.32051
    endloop
  endfacet
  facet normal 0 -0.5 0.866025
    outer loop
      vertex 47 12.6795 7.32051
      vertex 50 60.6218 35
      vertex 47 60.6218 35
    endloop
  endfacet
  facet normal -3.50919e-08 -0.5 0.866025
    outer loop
      vertex 50 60.6218 35
      vertex 47 12.6795 7.32051
      vertex 50 0 0
    endloop
  endfacet
  facet normal 5.03483e-08 -0.5 0.866025
    outer loop
      vertex 45 7.93301 4.58013
      vertex 50 0 0
      vertex 47 12.6795 7.32051
    endloop
  endfacet
  facet normal -2.21203e-07 -0.5 0.866025
    outer loop
      vertex 44.809 7.42397 4.28623
      vertex 50 0 0
      vertex 45 7.93301 4.58013
    endloop
  endfacet
  facet normal -6.81897e-07 -0.5 0.866025
    outer loop
      vertex 44.5157 7.23943 4.17969
      vertex 50 0 0
      vertex 44.809 7.42397 4.28623
    endloop
  endfacet
  facet normal 7.76957e-07 -0.5 0.866026
    outer loop
      vertex 44.309 7.10937 4.1046
      vertex 50 0 0
      vertex 44.5157 7.23943 4.17969
    endloop
  endfacet
  facet normal 0 -0.5 0.866025
    outer loop
      vertex 43.691 7.10937 4.1046
      vertex 50 0 0
      vertex 44.309 7.10937 4.1046
    endloop
  endfacet
  facet normal -2.64539e-06 -0.500002 0.866024
    outer loop
      vertex 43.4843 7.23943 4.17969
      vertex 50 0 0
      vertex 43.691 7.10937 4.1046
    endloop
  endfacet
  facet normal 2.32175e-06 -0.499998 0.866026
    outer loop
      vertex 43.191 7.42397 4.28623
      vertex 50 0 0
      vertex 43.4843 7.23943 4.17969
    endloop
  endfacet
  facet normal 3.8227e-08 -0.5 0.866025
    outer loop
      vertex 43.191 7.42397 4.28623
      vertex 29.0843 12.6795 7.32051
      vertex 50 0 0
    endloop
  endfacet
  facet normal -7.36746e-08 -0.5 0.866025
    outer loop
      vertex 29.0843 12.6795 7.32051
      vertex 43.191 7.42397 4.28623
      vertex 43 7.93301 4.58013
    endloop
  endfacet
  facet normal 0 -0.5 0.866026
    outer loop
      vertex -47 60.6218 35
      vertex -50 60.6218 35
      vertex -47 58.8031 33.95
    endloop
  endfacet
  facet normal 0 1 0
    outer loop
      vertex 50 100 35
      vertex -50 100 10
      vertex -50 100 35
    endloop
  endfacet
  facet normal -0 1 0
    outer loop
      vertex -50 100 10
      vertex 50 100 35
      vertex 50 100 10
    endloop
  endfacet
  facet normal -1 -0 0
    outer loop
      vertex -50 100 10
      vertex -50 0 0
      vertex -50 60.6218 35
    endloop
  endfacet
  facet normal 0 0 1
    outer loop
      vertex 47.5 92.5 35
      vertex 50 100 35
      vertex 47.5 98.5 35
    endloop
  endfacet
  facet normal 0 0 1
    outer loop
      vertex 50 100 35
      vertex 41.5 98.5 35
      vertex 47.5 98.5 35
    endloop
  endfacet
  facet normal 0 0 1
    outer loop
      vertex 41.5 98.5 35
      vertex -41.5 98.5 35
      vertex 41.5 97 35
    endloop
  endfacet
  facet normal 0 0 1
    outer loop
      vertex 50 100 35
      vertex -41.5 98.5 35
      vertex 41.5 98.5 35
    endloop
  endfacet
  facet normal -0 0 1
    outer loop
      vertex -50 100 35
      vertex -41.5 98.5 35
      vertex 50 100 35
    endloop
  endfacet
  facet normal 0 0 1
    outer loop
      vertex -47.5 98.5 35
      vertex -50 100 35
      vertex -47.5 92.5 35
    endloop
  endfacet
  facet normal 0 0 1
    outer loop
      vertex -41.5 98.5 35
      vertex -50 100 35
      vertex -47.5 98.5 35
    endloop
  endfacet
  facet normal 0 0 1
    outer loop
      vertex 50 100 35
      vertex 47.5 92.5 35
      vertex 50 60.6218 35
    endloop
  endfacet
  facet normal 0 0 1
    outer loop
      vertex 47 60.6218 35
      vertex 47.5 92.5 35
      vertex 47 92.5 35
    endloop
  endfacet
  facet normal 0 0 1
    outer loop
      vertex 47.5 92.5 35
      vertex 47 60.6218 35
      vertex 50 60.6218 35
    endloop
  endfacet
  facet normal 0 0 1
    outer loop
      vertex 41.5 97 35
      vertex -41.5 98.5 35
      vertex -41.5 97 35
    endloop
  endfacet
  facet normal -0 0 1
    outer loop
      vertex -47.5 92.5 35
      vertex -47 60.6218 35
      vertex -47 92.5 35
    endloop
  endfacet
  facet normal 0 0 1
    outer loop
      vertex -50 60.6218 35
      vertex -47.5 92.5 35
      vertex -50 100 35
    endloop
  endfacet
  facet normal 0 0 1
    outer loop
      vertex -47.5 92.5 35
      vertex -50 60.6218 35
      vertex -47 60.6218 35
    endloop
  endfacet
  facet normal -2.52523e-07 -0.5 0.866025
    outer loop
      vertex -50 60.6218 35
      vertex -47 22.5167 13
      vertex -47 58.8031 33.95
    endloop
  endfacet
  facet normal -1.08991e-07 -0.5 0.866025
    outer loop
      vertex -50 0 0
      vertex -47 22.5167 13
      vertex -50 60.6218 35
    endloop
  endfacet
  facet normal -1.05306e-07 -0.499999 0.866026
    outer loop
      vertex 29.0843 12.6795 7.32051
      vertex -43.079 8.14345 4.70162
      vertex -43 7.93301 4.58013
    endloop
  endfacet
  facet normal 9.91109e-08 -0.500001 0.866025
    outer loop
      vertex 29.0843 12.6795 7.32051
      vertex -43.191 8.44205 4.87402
      vertex -43.079 8.14345 4.70162
    endloop
  endfacet
  facet normal -6.26722e-09 -0.5 0.866025
    outer loop
      vertex -47 12.6795 7.32051
      vertex -43.191 8.44205 4.87402
      vertex 29.0843 12.6795 7.32051
    endloop
  endfacet
  facet normal -7.41207e-07 -0.500001 0.866025
    outer loop
      vertex -43.191 8.44205 4.87402
      vertex -47 12.6795 7.32051
      vertex -43.691 8.75665 5.05566
    endloop
  endfacet
  facet normal -2.06244e-06 -0.500001 0.866025
    outer loop
      vertex -47 12.6795 7.32051
      vertex -44.921 8.14345 4.70162
      vertex -44.809 8.44205 4.87402
    endloop
  endfacet
  facet normal 1.93122e-06 -0.499999 0.866026
    outer loop
      vertex -44.921 8.14345 4.70162
      vertex -47 12.6795 7.32051
      vertex -45 7.93301 4.58013
    endloop
  endfacet
  facet normal 2.42949e-07 -0.5 0.866025
    outer loop
      vertex -44.309 8.75665 5.05566
      vertex -47 12.6795 7.32051
      vertex -44.809 8.44205 4.87402
    endloop
  endfacet
  facet normal 0 -0.5 0.866025
    outer loop
      vertex -43.691 8.75665 5.05566
      vertex -47 12.6795 7.32051
      vertex -44.309 8.75665 5.05566
    endloop
  endfacet
  facet normal 1.27168e-08 -0.5 0.866025
    outer loop
      vertex -43.191 7.42397 4.28623
      vertex 29.0843 12.6795 7.32051
      vertex -43 7.93301 4.58013
    endloop
  endfacet
  facet normal -5.26272e-09 -0.5 0.866025
    outer loop
      vertex -50 0 0
      vertex 29.0843 12.6795 7.32051
      vertex -43.191 7.42397 4.28623
    endloop
  endfacet
  facet normal 1.00742e-06 -0.500001 0.866025
    outer loop
      vertex -50 0 0
      vertex -43.191 7.42397 4.28623
      vertex -43.4843 7.23943 4.17969
    endloop
  endfacet
  facet normal -1.8784e-06 -0.499999 0.866026
    outer loop
      vertex -50 0 0
      vertex -43.4843 7.23943 4.17969
      vertex -43.691 7.10937 4.1046
    endloop
  endfacet
  facet normal 0 -0.5 0.866025
    outer loop
      vertex -50 0 0
      vertex -43.691 7.10937 4.1046
      vertex -44.309 7.10937 4.1046
    endloop
  endfacet
  facet normal -6.31466e-08 -0.5 0.866025
    outer loop
      vertex -50 0 0
      vertex -45 7.93301 4.58013
      vertex -47 12.6795 7.32051
    endloop
  endfacet
  facet normal 0 -0.5 0.866025
    outer loop
      vertex 29.0843 12.6795 7.32051
      vertex -50 0 0
      vertex 50 0 0
    endloop
  endfacet
  facet normal 5.51688e-07 -0.5 0.866025
    outer loop
      vertex -44.5157 7.23943 4.17969
      vertex -50 0 0
      vertex -44.309 7.10937 4.1046
    endloop
  endfacet
  facet normal -2.95879e-07 -0.5 0.866025
    outer loop
      vertex -44.809 7.42397 4.28623
      vertex -50 0 0
      vertex -44.5157 7.23943 4.17969
    endloop
  endfacet
  facet normal 2.21203e-07 -0.5 0.866025
    outer loop
      vertex -45 7.93301 4.58013
      vertex -50 0 0
      vertex -44.809 7.42397 4.28623
    endloop
  endfacet
  facet normal 2.69548e-07 -0.5 0.866025
    outer loop
      vertex -47 22.5167 13
      vertex -50 0 0
      vertex -47 12.6795 7.32051
    endloop
  endfacet
  facet normal -1 -0 -0
    outer loop
      vertex -50 100 35
      vertex -50 100 10
      vertex -50 60.6218 35
    endloop
  endfacet
  facet normal 0 0 -1
    outer loop
      vertex -23 68 0
      vertex -19 77 0
      vertex -19 68 0
    endloop
  endfacet
  facet normal -0 0 -1
    outer loop
      vertex -19 77 0
      vertex -23 68 0
      vertex -23 77 0
    endloop
  endfacet
  facet normal 0 0 -1
    outer loop
      vertex -15 68 0
      vertex -11 77 0
      vertex -11 68 0
    endloop
  endfacet
  facet normal -0 0 -1
    outer loop
      vertex -11 77 0
      vertex -15 68 0
      vertex -15 77 0
    endloop
  endfacet
  facet normal 0 0 -1
    outer loop
      vertex 11 68 0
      vertex 15 77 0
      vertex 15 68 0
    endloop
  endfacet
  facet normal -0 0 -1
    outer loop
      vertex 15 77 0
      vertex 11 68 0
      vertex 11 77 0
    endloop
  endfacet
  facet normal 0 0 -1
    outer loop
      vertex 19 68 0
      vertex 23 77 0
      vertex 23 68 0
    endloop
  endfacet
  facet normal -0 0 -1
    outer loop
      vertex 23 77 0
      vertex 19 68 0
      vertex 19 77 0
    endloop
  endfacet
  facet normal 0 0 -1
    outer loop
      vertex 50 0 0
      vertex 45 60 0
      vertex 50 90 0
    endloop
  endfacet
  facet normal 0 0 -1
    outer loop
      vertex 50 0 0
      vertex 33 60 0
      vertex 45 60 0
    endloop
  endfacet
  facet normal 0 0 -1
    outer loop
      vertex 23 68 0
      vertex 33 60 0
      vertex 23 67 0
    endloop
  endfacet
  facet normal 0 0 -1
    outer loop
      vertex 11 67 0
      vertex 33 60 0
      vertex 50 0 0
    endloop
  endfacet
  facet normal 0 0 -1
    outer loop
      vertex 33 60 0
      vertex 19 67 0
      vertex 23 67 0
    endloop
  endfacet
  facet normal 0 0 -1
    outer loop
      vertex 15 68 0
      vertex 19 68 0
      vertex 19 67 0
    endloop
  endfacet
  facet normal 0 0 -1
    outer loop
      vertex 19 68 0
      vertex 15 68 0
      vertex 19 77 0
    endloop
  endfacet
  facet normal 0 0 -1
    outer loop
      vertex 15 68 0
      vertex 19 67 0
      vertex 15 67 0
    endloop
  endfacet
  facet normal 0 0 -1
    outer loop
      vertex 33 60 0
      vertex 15 67 0
      vertex 19 67 0
    endloop
  endfacet
  facet normal 0 0 -1
    outer loop
      vertex 33 60 0
      vertex 11 67 0
      vertex 15 67 0
    endloop
  endfacet
  facet normal 0 0 -1
    outer loop
      vertex -11 68 0
      vertex 11 68 0
      vertex 11 67 0
    endloop
  endfacet
  facet normal 0 0 -1
    outer loop
      vertex 11 68 0
      vertex -11 68 0
      vertex 11 77 0
    endloop
  endfacet
  facet normal 0 0 -1
    outer loop
      vertex -11 68 0
      vertex 11 67 0
      vertex -11 67 0
    endloop
  endfacet
  facet normal 0 0 -1
    outer loop
      vertex 50 0 0
      vertex -11 67 0
      vertex 11 67 0
    endloop
  endfacet
  facet normal 0 0 -1
    outer loop
      vertex -50 0 0
      vertex -11 67 0
      vertex 50 0 0
    endloop
  endfacet
  facet normal 0 0 -1
    outer loop
      vertex -19 68 0
      vertex -15 68 0
      vertex -15 67 0
    endloop
  endfacet
  facet normal 0 0 -1
    outer loop
      vertex -15 68 0
      vertex -19 68 0
      vertex -15 77 0
    endloop
  endfacet
  facet normal 0 0 -1
    outer loop
      vertex -19 68 0
      vertex -15 67 0
      vertex -19 67 0
    endloop
  endfacet
  facet normal 0 -0 -1
    outer loop
      vertex -33 60 0
      vertex -11 67 0
      vertex -50 0 0
    endloop
  endfacet
  facet normal -0 0 -1
    outer loop
      vertex -11 67 0
      vertex -33 60 0
      vertex -15 67 0
    endloop
  endfacet
  facet normal 0 0 -1
    outer loop
      vertex -33 60 0
      vertex -23 68 0
      vertex -23 67 0
    endloop
  endfacet
  facet normal 0 0 -1
    outer loop
      vertex -33 84.36 0
      vertex -23 68 0
      vertex -33 60 0
    endloop
  endfacet
  facet normal 0 0 -1
    outer loop
      vertex -23 68 0
      vertex -33 84.36 0
      vertex -23 77 0
    endloop
  endfacet
  facet normal -0 0 -1
    outer loop
      vertex -19 67 0
      vertex -33 60 0
      vertex -23 67 0
    endloop
  endfacet
  facet normal -0 0 -1
    outer loop
      vertex -15 67 0
      vertex -33 60 0
      vertex -19 67 0
    endloop
  endfacet
  facet normal 0 0 -1
    outer loop
      vertex -50 90 0
      vertex -45 60 0
      vertex -50 0 0
    endloop
  endfacet
  facet normal -0 0 -1
    outer loop
      vertex -33 60 0
      vertex -50 0 0
      vertex -45 60 0
    endloop
  endfacet
  facet normal 0 0 -1
    outer loop
      vertex 45 84.36 0
      vertex 50 90 0
      vertex 45 60 0
    endloop
  endfacet
  facet normal 0 0 -1
    outer loop
      vertex 33 84.36 0
      vertex 50 90 0
      vertex 45 84.36 0
    endloop
  endfacet
  facet normal 0 0 -1
    outer loop
      vertex 33 60 0
      vertex 23 68 0
      vertex 33 84.36 0
    endloop
  endfacet
  facet normal 0 0 -1
    outer loop
      vertex 23 77 0
      vertex 33 84.36 0
      vertex 23 68 0
    endloop
  endfacet
  facet normal 0 0 -1
    outer loop
      vertex 23 78 0
      vertex 33 84.36 0
      vertex 23 77 0
    endloop
  endfacet
  facet normal 0 0 -1
    outer loop
      vertex 19 78 0
      vertex 33 84.36 0
      vertex 23 78 0
    endloop
  endfacet
  facet normal 0 0 -1
    outer loop
      vertex 15 77 0
      vertex 19 77 0
      vertex 15 68 0
    endloop
  endfacet
  facet normal 0 0 -1
    outer loop
      vertex 19 77 0
      vertex 15 77 0
      vertex 19 78 0
    endloop
  endfacet
  facet normal 0 0 -1
    outer loop
      vertex 15 78 0
      vertex 19 78 0
      vertex 15 77 0
    endloop
  endfacet
  facet normal 0 0 -1
    outer loop
      vertex 19 78 0
      vertex 15 78 0
      vertex 33 84.36 0
    endloop
  endfacet
  facet normal 0 0 -1
    outer loop
      vertex 11 78 0
      vertex 33 84.36 0
      vertex 15 78 0
    endloop
  endfacet
  facet normal 0 0 -1
    outer loop
      vertex -33 84.36 0
      vertex 33 84.36 0
      vertex 11 78 0
    endloop
  endfacet
  facet normal 0 0 -1
    outer loop
      vertex -11 77 0
      vertex 11 77 0
      vertex -11 68 0
    endloop
  endfacet
  facet normal 0 0 -1
    outer loop
      vertex 11 77 0
      vertex -11 77 0
      vertex 11 78 0
    endloop
  endfacet
  facet normal 0 0 -1
    outer loop
      vertex -11 78 0
      vertex 11 78 0
      vertex -11 77 0
    endloop
  endfacet
  facet normal 0 0 -1
    outer loop
      vertex -33 84.36 0
      vertex 11 78 0
      vertex -11 78 0
    endloop
  endfacet
  facet normal 0 0 -1
    outer loop
      vertex -33 84.36 0
      vertex -11 78 0
      vertex -15 78 0
    endloop
  endfacet
  facet normal 0 0 -1
    outer loop
      vertex -19 77 0
      vertex -15 77 0
      vertex -19 68 0
    endloop
  endfacet
  facet normal 0 0 -1
    outer loop
      vertex -15 77 0
      vertex -19 77 0
      vertex -15 78 0
    endloop
  endfacet
  facet normal 0 0 -1
    outer loop
      vertex -19 78 0
      vertex -15 78 0
      vertex -19 77 0
    endloop
  endfacet
  facet normal 0 0 -1
    outer loop
      vertex -33 84.36 0
      vertex -15 78 0
      vertex -19 78 0
    endloop
  endfacet
  facet normal 0 0 -1
    outer loop
      vertex -33 84.36 0
      vertex -19 78 0
      vertex -23 78 0
    endloop
  endfacet
  facet normal 0 0 -1
    outer loop
      vertex -23 77 0
      vertex -33 84.36 0
      vertex -23 78 0
    endloop
  endfacet
  facet normal 0 0 -1
    outer loop
      vertex 33 84.36 0
      vertex -33 84.36 0
      vertex 50 90 0
    endloop
  endfacet
  facet normal 0 0 -1
    outer loop
      vertex -50 90 0
      vertex -33 84.36 0
      vertex -45 84.36 0
    endloop
  endfacet
  facet normal 0 0 -1
    outer loop
      vertex -33 84.36 0
      vertex -50 90 0
      vertex 50 90 0
    endloop
  endfacet
  facet normal 0 0 -1
    outer loop
      vertex -45 60 0
      vertex -50 90 0
      vertex -45 84.36 0
    endloop
  endfacet
  facet normal 1 -0 0
    outer loop
      vertex 50 60.6218 35
      vertex 50 100 10
      vertex 50 100 35
    endloop
  endfacet
  facet normal 1 0 0
    outer loop
      vertex 50 100 10
      vertex 50 60.6218 35
      vertex 50 90 0
    endloop
  endfacet
  facet normal 1 0 0
    outer loop
      vertex 50 90 0
      vertex 50 60.6218 35
      vertex 50 0 0
    endloop
  endfacet
  facet normal -1 0 0
    outer loop
      vertex -50 90 0
      vertex -50 0 0
      vertex -50 100 10
    endloop
  endfacet
  facet normal -6.7435e-09 0.707107 -0.707107
    outer loop
      vertex 50 100 10
      vertex -50 90 0
      vertex -50 100 10
    endloop
  endfacet
  facet normal 0 0.707107 -0.707107
    outer loop
      vertex 50 90 0
      vertex -50 90 0
      vertex 50 100 10
    endloop
  endfacet
  facet normal 0 -1 0
    outer loop
      vertex -41.5 97 28
      vertex 41.5 97 35
      vertex -41.5 97 35
    endloop
  endfacet
  facet normal 0 -1 0
    outer loop
      vertex -41.5 97 28
      vertex 41.5 97 28
      vertex 41.5 97 35
    endloop
  endfacet
  facet normal 0 -1 0
    outer loop
      vertex -47 97 13
      vertex -41.5 97 28
      vertex -43 97 26.25
    endloop
  endfacet
  facet normal 0 -1 -0
    outer loop
      vertex -41.5 97 28
      vertex -47 97 13
      vertex 41.5 97 28
    endloop
  endfacet
  facet normal 0 -1 0
    outer loop
      vertex -47 97 13
      vertex -43 97 26.25
      vertex -47 97 21.5833
    endloop
  endfacet
  facet normal 0 -1 -0
    outer loop
      vertex 41.5 97 28
      vertex -47 97 13
      vertex 47 97 13
    endloop
  endfacet
  facet normal 0 -1 0
    outer loop
      vertex 41.5 97 28
      vertex 47 97 13
      vertex 46 97 22.75
    endloop
  endfacet
  facet normal 0 -1 0
    outer loop
      vertex 46 97 22.75
      vertex 47 97 13
      vertex 47 97 21.5833
    endloop
  endfacet
  facet normal -0 0 1
    outer loop
      vertex -23 77 3
      vertex -19 68 3
      vertex -19 77 3
    endloop
  endfacet
  facet normal 0 0 1
    outer loop
      vertex -19 68 3
      vertex -23 77 3
      vertex -23 68 3
    endloop
  endfacet
  facet normal 5.96046e-08 0 1
    outer loop
      vertex -15 77 3
      vertex -11 68 3
      vertex -11 77 3
    endloop
  endfacet
  facet normal 5.96046e-08 0 1
    outer loop
      vertex -11 68 3
      vertex -15 77 3
      vertex -15 68 3
    endloop
  endfacet
  facet normal 5.96046e-08 0 1
    outer loop
      vertex 11 77 3
      vertex 15 68 3
      vertex 15 77 3
    endloop
  endfacet
  facet normal 5.96046e-08 0 1
    outer loop
      vertex 15 68 3
      vertex 11 77 3
      vertex 11 68 3
    endloop
  endfacet
  facet normal -0 0 1
    outer loop
      vertex 19 77 3
      vertex 23 68 3
      vertex 23 77 3
    endloop
  endfacet
  facet normal 0 0 1
    outer loop
      vertex 23 68 3
      vertex 19 77 3
      vertex 19 68 3
    endloop
  endfacet
  facet normal 0 0 1
    outer loop
      vertex 45 60 3
      vertex 47 87 3
      vertex 45 84.36 3
    endloop
  endfacet
  facet normal 1.98682e-08 -1.50517e-08 1
    outer loop
      vertex 47 87 3
      vertex 33 84.36 3
      vertex 45 84.36 3
    endloop
  endfacet
  facet normal 0 0 1
    outer loop
      vertex 23 77 3
      vertex 33 84.36 3
      vertex 23 78 3
    endloop
  endfacet
  facet normal 0 0 1
    outer loop
      vertex 33 84.36 3
      vertex 19 78 3
      vertex 23 78 3
    endloop
  endfacet
  facet normal 0 0 1
    outer loop
      vertex 15 77 3
      vertex 19 77 3
      vertex 19 78 3
    endloop
  endfacet
  facet normal 0 0 1
    outer loop
      vertex 19 77 3
      vertex 15 77 3
      vertex 19 68 3
    endloop
  endfacet
  facet normal 0 0 1
    outer loop
      vertex 15 77 3
      vertex 19 78 3
      vertex 15 78 3
    endloop
  endfacet
  facet normal 0 0 1
    outer loop
      vertex 33 84.36 3
      vertex 15 78 3
      vertex 19 78 3
    endloop
  endfacet
  facet normal 5.96046e-08 -1.68692e-07 1
    outer loop
      vertex 33 84.36 3
      vertex 11 78 3
      vertex 15 78 3
    endloop
  endfacet
  facet normal 0 0 1
    outer loop
      vertex -11 77 3
      vertex 11 77 3
      vertex 11 78 3
    endloop
  endfacet
  facet normal 0 0 1
    outer loop
      vertex 11 77 3
      vertex -11 77 3
      vertex 11 68 3
    endloop
  endfacet
  facet normal 0 0 1
    outer loop
      vertex -11 77 3
      vertex 11 78 3
      vertex -11 78 3
    endloop
  endfacet
  facet normal 0 3.74872e-08 1
    outer loop
      vertex 33 84.36 3
      vertex -11 78 3
      vertex 11 78 3
    endloop
  endfacet
  facet normal 7.22481e-09 5.19967e-08 1
    outer loop
      vertex -33 84.36 3
      vertex 33 84.36 3
      vertex 47 87 3
    endloop
  endfacet
  facet normal 7.22481e-09 -1.24957e-08 1
    outer loop
      vertex 33 84.36 3
      vertex -33 84.36 3
      vertex -11 78 3
    endloop
  endfacet
  facet normal 0 0 1
    outer loop
      vertex -19 77 3
      vertex -15 77 3
      vertex -15 78 3
    endloop
  endfacet
  facet normal 0 0 1
    outer loop
      vertex -15 77 3
      vertex -19 77 3
      vertex -15 68 3
    endloop
  endfacet
  facet normal 0 0 1
    outer loop
      vertex -19 77 3
      vertex -15 78 3
      vertex -19 78 3
    endloop
  endfacet
  facet normal 5.96046e-08 1.68692e-07 1
    outer loop
      vertex -11 78 3
      vertex -33 84.36 3
      vertex -15 78 3
    endloop
  endfacet
  facet normal 0 0 1
    outer loop
      vertex -15 78 3
      vertex -33 84.36 3
      vertex -19 78 3
    endloop
  endfacet
  facet normal 0 0 1
    outer loop
      vertex -33 84.36 3
      vertex -23 77 3
      vertex -23 78 3
    endloop
  endfacet
  facet normal 0 0 1
    outer loop
      vertex -23 77 3
      vertex -33 84.36 3
      vertex -23 68 3
    endloop
  endfacet
  facet normal 0 0 1
    outer loop
      vertex -33 60 3
      vertex -23 68 3
      vertex -33 84.36 3
    endloop
  endfacet
  facet normal 0 0 1
    outer loop
      vertex -19 78 3
      vertex -33 84.36 3
      vertex -23 78 3
    endloop
  endfacet
  facet normal 1.01455e-08 -3.65083e-08 1
    outer loop
      vertex -47 87 3
      vertex -33 84.36 3
      vertex 47 87 3
    endloop
  endfacet
  facet normal 0 0 1
    outer loop
      vertex -45 84.36 3
      vertex -47 87 3
      vertex -45 60 3
    endloop
  endfacet
  facet normal 1.98682e-08 1.50517e-08 1
    outer loop
      vertex -33 84.36 3
      vertex -47 87 3
      vertex -45 84.36 3
    endloop
  endfacet
  facet normal 0 0 1
    outer loop
      vertex 47 87 3
      vertex 45 60 3
      vertex 47 17 3
    endloop
  endfacet
  facet normal 1.98682e-08 9.24103e-10 1
    outer loop
      vertex 33 60 3
      vertex 47 17 3
      vertex 45 60 3
    endloop
  endfacet
  facet normal 0 0 1
    outer loop
      vertex 23 68 3
      vertex 33 84.36 3
      vertex 23 77 3
    endloop
  endfacet
  facet normal 0 0 1
    outer loop
      vertex 33 84.36 3
      vertex 23 68 3
      vertex 33 60 3
    endloop
  endfacet
  facet normal -0 0 1
    outer loop
      vertex 23 67 3
      vertex 33 60 3
      vertex 23 68 3
    endloop
  endfacet
  facet normal -0 0 1
    outer loop
      vertex 19 67 3
      vertex 33 60 3
      vertex 23 67 3
    endloop
  endfacet
  facet normal -0 0 1
    outer loop
      vertex 15 67 3
      vertex 33 60 3
      vertex 19 67 3
    endloop
  endfacet
  facet normal 0 0 1
    outer loop
      vertex 15 68 3
      vertex 19 68 3
      vertex 15 77 3
    endloop
  endfacet
  facet normal 0 0 1
    outer loop
      vertex 19 68 3
      vertex 15 68 3
      vertex 19 67 3
    endloop
  endfacet
  facet normal 0 0 1
    outer loop
      vertex 15 67 3
      vertex 19 67 3
      vertex 15 68 3
    endloop
  endfacet
  facet normal 5.96046e-08 1.53269e-07 1
    outer loop
      vertex 11 67 3
      vertex 33 60 3
      vertex 15 67 3
    endloop
  endfacet
  facet normal 1.01215e-08 -2.24923e-09 1
    outer loop
      vertex 33 60 3
      vertex 11 67 3
      vertex 47 17 3
    endloop
  endfacet
  facet normal 0 0 1
    outer loop
      vertex -11 68 3
      vertex 11 68 3
      vertex -11 77 3
    endloop
  endfacet
  facet normal 0 0 1
    outer loop
      vertex 11 68 3
      vertex -11 68 3
      vertex 11 67 3
    endloop
  endfacet
  facet normal 0 0 1
    outer loop
      vertex -11 67 3
      vertex 11 67 3
      vertex -11 68 3
    endloop
  endfacet
  facet normal 0 -9.53674e-09 1
    outer loop
      vertex 11 67 3
      vertex -11 67 3
      vertex 47 17 3
    endloop
  endfacet
  facet normal 5.96046e-08 -1.53269e-07 1
    outer loop
      vertex -33 60 3
      vertex -11 67 3
      vertex -15 67 3
    endloop
  endfacet
  facet normal 0 0 1
    outer loop
      vertex -19 68 3
      vertex -15 68 3
      vertex -19 77 3
    endloop
  endfacet
  facet normal 0 0 1
    outer loop
      vertex -15 68 3
      vertex -19 68 3
      vertex -15 67 3
    endloop
  endfacet
  facet normal 0 0 1
    outer loop
      vertex -19 67 3
      vertex -15 67 3
      vertex -19 68 3
    endloop
  endfacet
  facet normal 0 0 1
    outer loop
      vertex -33 60 3
      vertex -15 67 3
      vertex -19 67 3
    endloop
  endfacet
  facet normal 0 0 1
    outer loop
      vertex -33 60 3
      vertex -19 67 3
      vertex -23 67 3
    endloop
  endfacet
  facet normal 0 0 1
    outer loop
      vertex -23 68 3
      vertex -33 60 3
      vertex -23 67 3
    endloop
  endfacet
  facet normal 1.01215e-08 2.24923e-09 1
    outer loop
      vertex -11 67 3
      vertex -33 60 3
      vertex -47 17 3
    endloop
  endfacet
  facet normal 1.98682e-08 -9.24103e-10 1
    outer loop
      vertex -47 17 3
      vertex -33 60 3
      vertex -45 60 3
    endloop
  endfacet
  facet normal 1.01455e-08 2.232e-09 1
    outer loop
      vertex -11 67 3
      vertex -47 17 3
      vertex 47 17 3
    endloop
  endfacet
  facet normal 0 0 1
    outer loop
      vertex -47 17 3
      vertex -45 60 3
      vertex -47 87 3
    endloop
  endfacet
  facet normal -1 0 0
    outer loop
      vertex 47 97 13
      vertex 47 92.5 21.5833
      vertex 47 97 21.5833
    endloop
  endfacet
  facet normal -1 0 0
    outer loop
      vertex 47 87 3
      vertex 47 92.5 21.5833
      vertex 47 97 13
    endloop
  endfacet
  facet normal -1 0 0
    outer loop
      vertex 47 60.6218 35
      vertex 47 92.5 21.5833
      vertex 47 87 3
    endloop
  endfacet
  facet normal -1 0 0
    outer loop
      vertex 47 92.5 21.5833
      vertex 47 60.6218 35
      vertex 47 92.5 35
    endloop
  endfacet
  facet normal -1 0 0
    outer loop
      vertex 47 17 3
      vertex 47 60.6218 35
      vertex 47 87 3
    endloop
  endfacet
  facet normal -1 0 0
    outer loop
      vertex 47 60.6218 35
      vertex 47 17 3
      vertex 47 12.6795 7.32051
    endloop
  endfacet
  facet normal 1 -0 0
    outer loop
      vertex -47 22.5167 13
      vertex -47 87 3
      vertex -47 97 13
    endloop
  endfacet
  facet normal 1 0 0
    outer loop
      vertex -47 22.5167 13
      vertex -47 17 3
      vertex -47 87 3
    endloop
  endfacet
  facet normal 1 0 -0
    outer loop
      vertex -47 17 3
      vertex -47 22.5167 13
      vertex -47 12.6795 7.32051
    endloop
  endfacet
  facet normal 1.882e-08 0.707107 0.707107
    outer loop
      vertex 47 17 3
      vertex 29.0843 12.6795 7.32051
      vertex 47 12.6795 7.32051
    endloop
  endfacet
  facet normal 7.17393e-09 0.707107 0.707107
    outer loop
      vertex -47 17 3
      vertex 29.0843 12.6795 7.32051
      vertex 47 17 3
    endloop
  endfacet
  facet normal 8.86319e-09 0.707107 0.707107
    outer loop
      vertex 29.0843 12.6795 7.32051
      vertex -47 17 3
      vertex -47 12.6795 7.32051
    endloop
  endfacet
  facet normal 7.17393e-09 -0.707107 0.707107
    outer loop
      vertex -47 87 3
      vertex 47 97 13
      vertex -47 97 13
    endloop
  endfacet
  facet normal 7.17393e-09 -0.707107 0.707107
    outer loop
      vertex 47 97 13
      vertex -47 87 3
      vertex 47 87 3
    endloop
  endfacet
  facet normal 1 -0 0
    outer loop
      vertex -47 60.6218 35
      vertex -47 92.5 22.1667
      vertex -47 92.5 35
    endloop
  endfacet
  facet normal 1 0 0
    outer loop
      vertex -47 92.5 22.1667
      vertex -47 60.6218 35
      vertex -47 92.5 21.5833
    endloop
  endfacet
  facet normal 1 -0 0
    outer loop
      vertex -47 93 21.5833
      vertex -47 97 13
      vertex -47 97 21.5833
    endloop
  endfacet
  facet normal 1 -0 0
    outer loop
      vertex -47 92.5 21.5833
      vertex -47 97 13
      vertex -47 93 21.5833
    endloop
  endfacet
  facet normal 1 -0 0
    outer loop
      vertex -47 58.8031 33.95
      vertex -47 92.5 21.5833
      vertex -47 60.6218 35
    endloop
  endfacet
  facet normal 1 0 0
    outer loop
      vertex -47 92.5 21.5833
      vertex -47 58.8031 33.95
      vertex -47 97 13
    endloop
  endfacet
  facet normal 1 0 0
    outer loop
      vertex -47 97 13
      vertex -47 58.8031 33.95
      vertex -47 22.5167 13
    endloop
  endfacet
  facet normal 1 -0 0
    outer loop
      vertex -45 60 3
      vertex -45 84.36 0
      vertex -45 84.36 3
    endloop
  endfacet
  facet normal 1 0 0
    outer loop
      vertex -45 84.36 0
      vertex -45 60 3
      vertex -45 60 0
    endloop
  endfacet
  facet normal -1 0 0
    outer loop
      vertex -33 60 0
      vertex -33 84.36 3
      vertex -33 84.36 0
    endloop
  endfacet
  facet normal -1 -0 0
    outer loop
      vertex -33 84.36 3
      vertex -33 60 0
      vertex -33 60 3
    endloop
  endfacet
  facet normal 0 1 -0
    outer loop
      vertex -33 60 0
      vertex -45 60 3
      vertex -33 60 3
    endloop
  endfacet
  facet normal 0 1 0
    outer loop
      vertex -45 60 3
      vertex -33 60 0
      vertex -45 60 0
    endloop
  endfacet
  facet normal 0 -1 0
    outer loop
      vertex -45 84.36 0
      vertex -33 84.36 3
      vertex -45 84.36 3
    endloop
  endfacet
  facet normal 0 -1 -0
    outer loop
      vertex -33 84.36 3
      vertex -45 84.36 0
      vertex -33 84.36 0
    endloop
  endfacet
  facet normal 1 -0 0
    outer loop
      vertex 33 60 3
      vertex 33 84.36 0
      vertex 33 84.36 3
    endloop
  endfacet
  facet normal 1 0 0
    outer loop
      vertex 33 84.36 0
      vertex 33 60 3
      vertex 33 60 0
    endloop
  endfacet
  facet normal -1 0 0
    outer loop
      vertex 45 60 0
      vertex 45 84.36 3
      vertex 45 84.36 0
    endloop
  endfacet
  facet normal -1 -0 0
    outer loop
      vertex 45 84.36 3
      vertex 45 60 0
      vertex 45 60 3
    endloop
  endfacet
  facet normal 0 -1 0
    outer loop
      vertex 33 84.36 0
      vertex 45 84.36 3
      vertex 33 84.36 3
    endloop
  endfacet
  facet normal 0 -1 -0
    outer loop
      vertex 45 84.36 3
      vertex 33 84.36 0
      vertex 45 84.36 0
    endloop
  endfacet
  facet normal 0 1 -0
    outer loop
      vertex 45 60 0
      vertex 33 60 3
      vertex 45 60 3
    endloop
  endfacet
  facet normal 0 1 0
    outer loop
      vertex 33 60 3
      vertex 45 60 0
      vertex 33 60 0
    endloop
  endfacet
  facet normal -0.951056 -0.267617 -0.154509
    outer loop
      vertex 44.921 8.14345 4.70162
      vertex 44.809 10.509 1.29389
      vertex 45 10 1
    endloop
  endfacet
  facet normal -0.951057 -0.267615 -0.154508
    outer loop
      vertex 44.809 10.509 1.29389
      vertex 44.921 8.14345 4.70162
      vertex 44.809 8.44205 4.87402
    endloop
  endfacet
  facet normal -9.13875e-07 -0.5 0.866025
    outer loop
      vertex 45 10 1
      vertex 44.809 10.509 1.29389
      vertex 44.809 9.49096 0.706107
    endloop
  endfacet
  facet normal 3.19294e-07 -0.5 0.866025
    outer loop
      vertex 43.691 10.8236 1.47553
      vertex 43.191 10.509 1.29389
      vertex 43.191 9.49096 0.706107
    endloop
  endfacet
  facet normal -0.951056 -0.267619 -0.15451
    outer loop
      vertex 45 10 1
      vertex 45 7.93301 4.58013
      vertex 44.921 8.14345 4.70162
    endloop
  endfacet
  facet normal -0.951057 0.267616 0.154508
    outer loop
      vertex 44.809 9.49096 0.706107
      vertex 45 7.93301 4.58013
      vertex 45 10 1
    endloop
  endfacet
  facet normal -0.951057 0.267616 0.154508
    outer loop
      vertex 45 7.93301 4.58013
      vertex 44.809 9.49096 0.706107
      vertex 44.809 7.42397 4.28623
    endloop
  endfacet
  facet normal 0 -0.866025 -0.5
    outer loop
      vertex 43.691 10.8236 1.47553
      vertex 44.309 8.75665 5.05566
      vertex 43.691 8.75665 5.05566
    endloop
  endfacet
  facet normal 0 -0.866025 -0.5
    outer loop
      vertex 44.309 8.75665 5.05566
      vertex 43.691 10.8236 1.47553
      vertex 44.309 10.8236 1.47553
    endloop
  endfacet
  facet normal 0 0.866025 0.5
    outer loop
      vertex 44.309 9.17636 0.524471
      vertex 43.691 7.10937 4.1046
      vertex 44.309 7.10937 4.1046
    endloop
  endfacet
  facet normal 0 0.866025 0.5
    outer loop
      vertex 43.691 7.10937 4.1046
      vertex 44.309 9.17636 0.524471
      vertex 43.691 9.17636 0.524471
    endloop
  endfacet
  facet normal 0.951057 -0.267615 -0.154508
    outer loop
      vertex 43.079 8.14345 4.70162
      vertex 43.191 10.509 1.29389
      vertex 43.191 8.44205 4.87402
    endloop
  endfacet
  facet normal 0.951056 -0.267617 -0.154509
    outer loop
      vertex 43.191 10.509 1.29389
      vertex 43.079 8.14345 4.70162
      vertex 43 10 1
    endloop
  endfacet
  facet normal 0.587787 0.700628 0.404508
    outer loop
      vertex 43.4843 7.23943 4.17969
      vertex 43.191 9.49096 0.706107
      vertex 43.191 7.42397 4.28623
    endloop
  endfacet
  facet normal 0.587786 0.700629 0.404508
    outer loop
      vertex 43.191 9.49096 0.706107
      vertex 43.4843 7.23943 4.17969
      vertex 43.691 9.17636 0.524471
    endloop
  endfacet
  facet normal 0 -0.5 0.866025
    outer loop
      vertex 43.691 10.8236 1.47553
      vertex 44.809 9.49096 0.706107
      vertex 44.309 10.8236 1.47553
    endloop
  endfacet
  facet normal 0 -0.5 0.866025
    outer loop
      vertex 44.809 9.49096 0.706107
      vertex 43.691 10.8236 1.47553
      vertex 43.191 9.49096 0.706107
    endloop
  endfacet
  facet normal -3.19294e-07 -0.5 0.866025
    outer loop
      vertex 44.809 9.49096 0.706107
      vertex 44.809 10.509 1.29389
      vertex 44.309 10.8236 1.47553
    endloop
  endfacet
  facet normal 9.13875e-07 -0.5 0.866025
    outer loop
      vertex 43.191 9.49096 0.706107
      vertex 43.191 10.509 1.29389
      vertex 43 10 1
    endloop
  endfacet
  facet normal 0 -0.5 0.866026
    outer loop
      vertex 44.809 9.49096 0.706107
      vertex 43.691 9.17636 0.524471
      vertex 44.309 9.17636 0.524471
    endloop
  endfacet
  facet normal 0 -0.5 0.866026
    outer loop
      vertex 43.691 9.17636 0.524471
      vertex 44.809 9.49096 0.706107
      vertex 43.191 9.49096 0.706107
    endloop
  endfacet
  facet normal -0.587787 0.700628 0.404508
    outer loop
      vertex 44.809 9.49096 0.706107
      vertex 44.5157 7.23943 4.17969
      vertex 44.809 7.42397 4.28623
    endloop
  endfacet
  facet normal -0.587786 0.700629 0.404508
    outer loop
      vertex 44.5157 7.23943 4.17969
      vertex 44.809 9.49096 0.706107
      vertex 44.309 9.17636 0.524471
    endloop
  endfacet
  facet normal -0.587784 0.70063 0.404509
    outer loop
      vertex 44.5157 7.23943 4.17969
      vertex 44.309 9.17636 0.524471
      vertex 44.309 7.10937 4.1046
    endloop
  endfacet
  facet normal -0.587786 -0.700629 -0.404508
    outer loop
      vertex 44.309 10.8236 1.47553
      vertex 44.809 8.44205 4.87402
      vertex 44.309 8.75665 5.05566
    endloop
  endfacet
  facet normal -0.587786 -0.700629 -0.404508
    outer loop
      vertex 44.809 8.44205 4.87402
      vertex 44.309 10.8236 1.47553
      vertex 44.809 10.509 1.29389
    endloop
  endfacet
  facet normal 0.951056 -0.267619 -0.15451
    outer loop
      vertex 43 10 1
      vertex 43.079 8.14345 4.70162
      vertex 43 7.93301 4.58013
    endloop
  endfacet
  facet normal 0.951057 0.267616 0.154508
    outer loop
      vertex 43 7.93301 4.58013
      vertex 43.191 9.49096 0.706107
      vertex 43 10 1
    endloop
  endfacet
  facet normal 0.951057 0.267616 0.154508
    outer loop
      vertex 43.191 9.49096 0.706107
      vertex 43 7.93301 4.58013
      vertex 43.191 7.42397 4.28623
    endloop
  endfacet
  facet normal 0.587786 -0.700629 -0.404508
    outer loop
      vertex 43.191 8.44205 4.87402
      vertex 43.691 10.8236 1.47553
      vertex 43.691 8.75665 5.05566
    endloop
  endfacet
  facet normal 0.587786 -0.700629 -0.404508
    outer loop
      vertex 43.691 10.8236 1.47553
      vertex 43.191 8.44205 4.87402
      vertex 43.191 10.509 1.29389
    endloop
  endfacet
  facet normal 0.587784 0.70063 0.404509
    outer loop
      vertex 43.691 7.10937 4.1046
      vertex 43.691 9.17636 0.524471
      vertex 43.4843 7.23943 4.17969
    endloop
  endfacet
  facet normal -0.951056 -0.267617 -0.154509
    outer loop
      vertex -43.079 8.14345 4.70162
      vertex -43.191 10.509 1.29389
      vertex -43 10 1
    endloop
  endfacet
  facet normal -0.951057 -0.267615 -0.154508
    outer loop
      vertex -43.191 10.509 1.29389
      vertex -43.079 8.14345 4.70162
      vertex -43.191 8.44205 4.87402
    endloop
  endfacet
  facet normal 0.951056 -0.267619 -0.15451
    outer loop
      vertex -45 10 1
      vertex -44.921 8.14345 4.70162
      vertex -45 7.93301 4.58013
    endloop
  endfacet
  facet normal -0.951056 -0.267619 -0.15451
    outer loop
      vertex -43 10 1
      vertex -43 7.93301 4.58013
      vertex -43.079 8.14345 4.70162
    endloop
  endfacet
  facet normal -9.13875e-07 -0.5 0.866025
    outer loop
      vertex -43 10 1
      vertex -43.191 10.509 1.29389
      vertex -43.191 9.49096 0.706107
    endloop
  endfacet
  facet normal -0.951057 0.267616 0.154508
    outer loop
      vertex -43.191 9.49096 0.706107
      vertex -43 7.93301 4.58013
      vertex -43 10 1
    endloop
  endfacet
  facet normal -0.951057 0.267616 0.154508
    outer loop
      vertex -43 7.93301 4.58013
      vertex -43.191 9.49096 0.706107
      vertex -43.191 7.42397 4.28623
    endloop
  endfacet
  facet normal -0.587786 -0.700629 -0.404508
    outer loop
      vertex -43.691 10.8236 1.47553
      vertex -43.191 8.44205 4.87402
      vertex -43.691 8.75665 5.05566
    endloop
  endfacet
  facet normal -0.587786 -0.700629 -0.404508
    outer loop
      vertex -43.191 8.44205 4.87402
      vertex -43.691 10.8236 1.47553
      vertex -43.191 10.509 1.29389
    endloop
  endfacet
  facet normal 0.587786 0.700629 0.404508
    outer loop
      vertex -44.5157 7.23943 4.17969
      vertex -44.809 9.49096 0.706107
      vertex -44.809 7.42397 4.28623
    endloop
  endfacet
  facet normal 0.587786 0.700629 0.404508
    outer loop
      vertex -44.809 9.49096 0.706107
      vertex -44.5157 7.23943 4.17969
      vertex -44.309 9.17636 0.524471
    endloop
  endfacet
  facet normal 0 -0.866025 -0.5
    outer loop
      vertex -44.309 10.8236 1.47553
      vertex -43.691 8.75665 5.05566
      vertex -44.309 8.75665 5.05566
    endloop
  endfacet
  facet normal 0 -0.866025 -0.5
    outer loop
      vertex -43.691 8.75665 5.05566
      vertex -44.309 10.8236 1.47553
      vertex -43.691 10.8236 1.47553
    endloop
  endfacet
  facet normal 0.587786 -0.700629 -0.404508
    outer loop
      vertex -44.809 8.44205 4.87402
      vertex -44.309 10.8236 1.47553
      vertex -44.309 8.75665 5.05566
    endloop
  endfacet
  facet normal 0.587786 -0.700629 -0.404508
    outer loop
      vertex -44.309 10.8236 1.47553
      vertex -44.809 8.44205 4.87402
      vertex -44.809 10.509 1.29389
    endloop
  endfacet
  facet normal 3.19294e-07 -0.5 0.866025
    outer loop
      vertex -44.309 10.8236 1.47553
      vertex -44.809 10.509 1.29389
      vertex -44.809 9.49096 0.706107
    endloop
  endfacet
  facet normal 0.587785 0.70063 0.404509
    outer loop
      vertex -44.309 7.10937 4.1046
      vertex -44.309 9.17636 0.524471
      vertex -44.5157 7.23943 4.17969
    endloop
  endfacet
  facet normal 0 -0.5 0.866025
    outer loop
      vertex -44.309 10.8236 1.47553
      vertex -43.191 9.49096 0.706107
      vertex -43.691 10.8236 1.47553
    endloop
  endfacet
  facet normal 0 -0.5 0.866025
    outer loop
      vertex -43.191 9.49096 0.706107
      vertex -44.309 10.8236 1.47553
      vertex -44.809 9.49096 0.706107
    endloop
  endfacet
  facet normal -3.19294e-07 -0.5 0.866025
    outer loop
      vertex -43.191 9.49096 0.706107
      vertex -43.191 10.509 1.29389
      vertex -43.691 10.8236 1.47553
    endloop
  endfacet
  facet normal 0 -0.5 0.866026
    outer loop
      vertex -43.191 9.49096 0.706107
      vertex -44.309 9.17636 0.524471
      vertex -43.691 9.17636 0.524471
    endloop
  endfacet
  facet normal 0 -0.5 0.866026
    outer loop
      vertex -44.309 9.17636 0.524471
      vertex -43.191 9.49096 0.706107
      vertex -44.809 9.49096 0.706107
    endloop
  endfacet
  facet normal 9.13875e-07 -0.5 0.866025
    outer loop
      vertex -44.809 9.49096 0.706107
      vertex -44.809 10.509 1.29389
      vertex -45 10 1
    endloop
  endfacet
  facet normal 0.951057 0.267616 0.154508
    outer loop
      vertex -45 7.93301 4.58013
      vertex -44.809 9.49096 0.706107
      vertex -45 10 1
    endloop
  endfacet
  facet normal 0.951057 0.267616 0.154508
    outer loop
      vertex -44.809 9.49096 0.706107
      vertex -45 7.93301 4.58013
      vertex -44.809 7.42397 4.28623
    endloop
  endfacet
  facet normal 0.951057 -0.267615 -0.154508
    outer loop
      vertex -44.921 8.14345 4.70162
      vertex -44.809 10.509 1.29389
      vertex -44.809 8.44205 4.87402
    endloop
  endfacet
  facet normal 0.951056 -0.267617 -0.154509
    outer loop
      vertex -44.809 10.509 1.29389
      vertex -44.921 8.14345 4.70162
      vertex -45 10 1
    endloop
  endfacet
  facet normal -0.587785 0.70063 0.404509
    outer loop
      vertex -43.4843 7.23943 4.17969
      vertex -43.691 9.17636 0.524471
      vertex -43.691 7.10937 4.1046
    endloop
  endfacet
  facet normal 0 0.866025 0.5
    outer loop
      vertex -43.691 9.17636 0.524471
      vertex -44.309 7.10937 4.1046
      vertex -43.691 7.10937 4.1046
    endloop
  endfacet
  facet normal 0 0.866025 0.5
    outer loop
      vertex -44.309 7.10937 4.1046
      vertex -43.691 9.17636 0.524471
      vertex -44.309 9.17636 0.524471
    endloop
  endfacet
  facet normal -0.587786 0.700629 0.404508
    outer loop
      vertex -43.191 9.49096 0.706107
      vertex -43.4843 7.23943 4.17969
      vertex -43.191 7.42397 4.28623
    endloop
  endfacet
  facet normal -0.587786 0.700629 0.404508
    outer loop
      vertex -43.4843 7.23943 4.17969
      vertex -43.191 9.49096 0.706107
      vertex -43.691 9.17636 0.524471
    endloop
  endfacet
  facet normal 0.759257 2.7774e-06 -0.650791
    outer loop
      vertex -43 97 26.25
      vertex -44.0714 96.3642 25
      vertex -47 97 21.5833
    endloop
  endfacet
  facet normal 0.759258 -2.55685e-06 -0.65079
    outer loop
      vertex -44.0714 96.3642 25
      vertex -43 97 26.25
      vertex -43.8191 96.1809 25.2944
    endloop
  endfacet
  facet normal 0.759256 0 -0.650792
    outer loop
      vertex -44.0714 95.9286 25
      vertex -47 97 21.5833
      vertex -44.0714 96.3642 25
    endloop
  endfacet
  facet normal 0.759256 0 -0.650792
    outer loop
      vertex -47 97 21.5833
      vertex -44.0714 95.9286 25
      vertex -47 93 21.5833
    endloop
  endfacet
  facet normal 0.759257 2.75841e-07 -0.650791
    outer loop
      vertex -43.5 95.5 25.6667
      vertex -43 97 26.25
      vertex -41.5 97 28
    endloop
  endfacet
  facet normal 0.759255 4.03314e-06 -0.650793
    outer loop
      vertex -43 97 26.25
      vertex -43.691 96.0878 25.4439
      vertex -43.8191 96.1809 25.2944
    endloop
  endfacet
  facet normal 0.759258 -5.76774e-07 -0.65079
    outer loop
      vertex -43 97 26.25
      vertex -43.5 95.5 25.6667
      vertex -43.691 96.0878 25.4439
    endloop
  endfacet
  facet normal 0.759257 0 -0.650791
    outer loop
      vertex -41.5 92.5 28
      vertex -43.5 95.5 25.6667
      vertex -41.5 97 28
    endloop
  endfacet
  facet normal 0.759257 9.0135e-07 -0.650791
    outer loop
      vertex -43.5 95.5 25.6667
      vertex -41.5 92.5 28
      vertex -43.691 94.9122 25.4439
    endloop
  endfacet
  facet normal 0.759257 2.85103e-07 -0.650791
    outer loop
      vertex -41.5 92.5 28
      vertex -44.0714 94.6358 25
      vertex -43.691 94.9122 25.4439
    endloop
  endfacet
  facet normal 0.759257 -8.6548e-07 -0.650791
    outer loop
      vertex -47 92.5 21.5833
      vertex -44.0714 94.6358 25
      vertex -41.5 92.5 28
    endloop
  endfacet
  facet normal 0.759256 0 -0.650792
    outer loop
      vertex -44.0714 94.6358 25
      vertex -47 92.5 21.5833
      vertex -47 93 21.5833
    endloop
  endfacet
  facet normal 0.759256 0 -0.650792
    outer loop
      vertex -44.0714 95.9286 25
      vertex -44.0714 94.6358 25
      vertex -47 93 21.5833
    endloop
  endfacet
  facet normal 0 -1 0
    outer loop
      vertex -47 92.5 22.1667
      vertex -41.5 92.5 28
      vertex -41.5 92.5 35
    endloop
  endfacet
  facet normal 0 -1 0
    outer loop
      vertex -41.5 92.5 28
      vertex -47 92.5 22.1667
      vertex -47 92.5 21.5833
    endloop
  endfacet
  facet normal 1 -0 0
    outer loop
      vertex -41.5 92.5 35
      vertex -41.5 97 28
      vertex -41.5 97 35
    endloop
  endfacet
  facet normal 1 0 0
    outer loop
      vertex -41.5 97 28
      vertex -41.5 92.5 35
      vertex -41.5 92.5 28
    endloop
  endfacet
  facet normal 0 0 0
    outer loop
      vertex -41.5 92.5 35
      vertex -41.5 97 35
      vertex -41.5 98.5 35
    endloop
  endfacet
  facet normal 0 -1 0
    outer loop
      vertex -47 92.5 35
      vertex -47 92.5 22.1667
      vertex -41.5 92.5 35
    endloop
  endfacet
  facet normal 0 0 0
    outer loop
      vertex -41.5 92.5 35
      vertex -47.5 92.5 35
      vertex -47 92.5 35
    endloop
  endfacet
  facet normal 0 0 1
    outer loop
      vertex -41.5 98.5 35
      vertex -43.5 95.5 35
      vertex -41.5 92.5 35
    endloop
  endfacet
  facet normal 0 0 1
    outer loop
      vertex -41.5 98.5 35
      vertex -43.691 96.0878 35
      vertex -43.5 95.5 35
    endloop
  endfacet
  facet normal 0 0 1
    outer loop
      vertex -41.5 98.5 35
      vertex -44.191 96.4511 35
      vertex -43.691 96.0878 35
    endloop
  endfacet
  facet normal 0 0 1
    outer loop
      vertex -41.5 98.5 35
      vertex -44.809 96.4511 35
      vertex -44.191 96.4511 35
    endloop
  endfacet
  facet normal 0 0 1
    outer loop
      vertex -45.309 96.0878 35
      vertex -47.5 98.5 35
      vertex -45.5 95.5 35
    endloop
  endfacet
  facet normal 0 0 1
    outer loop
      vertex -44.809 96.4511 35
      vertex -47.5 98.5 35
      vertex -45.309 96.0878 35
    endloop
  endfacet
  facet normal -0 0 1
    outer loop
      vertex -47.5 98.5 35
      vertex -44.809 96.4511 35
      vertex -41.5 98.5 35
    endloop
  endfacet
  facet normal -0 0 1
    outer loop
      vertex -43.691 94.9122 35
      vertex -41.5 92.5 35
      vertex -43.5 95.5 35
    endloop
  endfacet
  facet normal -0 0 1
    outer loop
      vertex -44.191 94.5489 35
      vertex -41.5 92.5 35
      vertex -43.691 94.9122 35
    endloop
  endfacet
  facet normal -0 0 1
    outer loop
      vertex -44.809 94.5489 35
      vertex -41.5 92.5 35
      vertex -44.191 94.5489 35
    endloop
  endfacet
  facet normal 0 0 1
    outer loop
      vertex -47.5 92.5 35
      vertex -45.5 95.5 35
      vertex -47.5 98.5 35
    endloop
  endfacet
  facet normal 0 0 1
    outer loop
      vertex -44.809 94.5489 35
      vertex -47.5 92.5 35
      vertex -41.5 92.5 35
    endloop
  endfacet
  facet normal 0 0 1
    outer loop
      vertex -45.309 94.9122 35
      vertex -47.5 92.5 35
      vertex -44.809 94.5489 35
    endloop
  endfacet
  facet normal 0 0 1
    outer loop
      vertex -45.5 95.5 35
      vertex -47.5 92.5 35
      vertex -45.309 94.9122 35
    endloop
  endfacet
  facet normal -0.951056 -0.309017 0
    outer loop
      vertex -43.5 95.5 25.6667
      vertex -43.691 96.0878 35
      vertex -43.691 96.0878 25.4439
    endloop
  endfacet
  facet normal -0.951056 -0.309017 0
    outer loop
      vertex -43.691 96.0878 35
      vertex -43.5 95.5 25.6667
      vertex -43.5 95.5 35
    endloop
  endfacet
  facet normal 0 -1 0
    outer loop
      vertex -44.809 96.4511 25
      vertex -44.191 96.4511 35
      vertex -44.809 96.4511 35
    endloop
  endfacet
  facet normal 0 -1 -0
    outer loop
      vertex -44.191 96.4511 35
      vertex -44.809 96.4511 25
      vertex -44.191 96.4511 25
    endloop
  endfacet
  facet normal -0.587788 -0.809015 0
    outer loop
      vertex -44.191 96.4511 35
      vertex -43.691 96.0878 25.4439
      vertex -43.691 96.0878 35
    endloop
  endfacet
  facet normal -0.587788 -0.809015 0
    outer loop
      vertex -44.191 96.4511 25
      vertex -43.691 96.0878 25.4439
      vertex -44.191 96.4511 35
    endloop
  endfacet
  facet normal -0.587824 -0.808989 6.23213e-05
    outer loop
      vertex -43.691 96.0878 25.4439
      vertex -44.191 96.4511 25
      vertex -43.8191 96.1809 25.2944
    endloop
  endfacet
  facet normal -0.587776 -0.809024 -3.09522e-05
    outer loop
      vertex -43.8191 96.1809 25.2944
      vertex -44.191 96.4511 25
      vertex -44.0714 96.3642 25
    endloop
  endfacet
  facet normal 0.587788 -0.809015 0
    outer loop
      vertex -45.309 96.0878 25
      vertex -44.809 96.4511 35
      vertex -45.309 96.0878 35
    endloop
  endfacet
  facet normal 0.587788 -0.809015 0
    outer loop
      vertex -44.809 96.4511 35
      vertex -45.309 96.0878 25
      vertex -44.809 96.4511 25
    endloop
  endfacet
  facet normal -0.587788 0.809015 0
    outer loop
      vertex -43.691 94.9122 25.4439
      vertex -44.191 94.5489 35
      vertex -43.691 94.9122 35
    endloop
  endfacet
  facet normal -0.587776 0.809024 -2.08522e-05
    outer loop
      vertex -44.191 94.5489 25
      vertex -43.691 94.9122 25.4439
      vertex -44.0714 94.6358 25
    endloop
  endfacet
  facet normal -0.587788 0.809015 0
    outer loop
      vertex -43.691 94.9122 25.4439
      vertex -44.191 94.5489 25
      vertex -44.191 94.5489 35
    endloop
  endfacet
  facet normal 0.587788 0.809015 -0
    outer loop
      vertex -44.809 94.5489 25
      vertex -45.309 94.9122 35
      vertex -44.809 94.5489 35
    endloop
  endfacet
  facet normal 0.587788 0.809015 0
    outer loop
      vertex -45.309 94.9122 35
      vertex -44.809 94.5489 25
      vertex -45.309 94.9122 25
    endloop
  endfacet
  facet normal 0 0 1
    outer loop
      vertex -44.191 96.4511 25
      vertex -44.0714 95.9286 25
      vertex -44.0714 96.3642 25
    endloop
  endfacet
  facet normal 0 0 1
    outer loop
      vertex -44.0714 95.9286 25
      vertex -44.191 96.4511 25
      vertex -44.809 96.4511 25
    endloop
  endfacet
  facet normal 0 0 1
    outer loop
      vertex -44.0714 95.9286 25
      vertex -44.809 96.4511 25
      vertex -45.309 96.0878 25
    endloop
  endfacet
  facet normal 0 0 1
    outer loop
      vertex -44.0714 95.9286 25
      vertex -45.309 96.0878 25
      vertex -45.5 95.5 25
    endloop
  endfacet
  facet normal 0 0 1
    outer loop
      vertex -44.0714 94.6358 25
      vertex -44.809 94.5489 25
      vertex -44.191 94.5489 25
    endloop
  endfacet
  facet normal 0 -0 1
    outer loop
      vertex -45.309 94.9122 25
      vertex -44.0714 95.9286 25
      vertex -45.5 95.5 25
    endloop
  endfacet
  facet normal 0 0 1
    outer loop
      vertex -44.0714 95.9286 25
      vertex -44.809 94.5489 25
      vertex -44.0714 94.6358 25
    endloop
  endfacet
  facet normal 0 -0 1
    outer loop
      vertex -44.809 94.5489 25
      vertex -44.0714 95.9286 25
      vertex -45.309 94.9122 25
    endloop
  endfacet
  facet normal 0.951056 -0.309017 0
    outer loop
      vertex -45.5 95.5 35
      vertex -45.309 96.0878 25
      vertex -45.309 96.0878 35
    endloop
  endfacet
  facet normal 0.951056 -0.309017 0
    outer loop
      vertex -45.309 96.0878 25
      vertex -45.5 95.5 35
      vertex -45.5 95.5 25
    endloop
  endfacet
  facet normal -0.951056 0.309017 0
    outer loop
      vertex -43.691 94.9122 35
      vertex -43.5 95.5 25.6667
      vertex -43.691 94.9122 25.4439
    endloop
  endfacet
  facet normal -0.951056 0.309017 0
    outer loop
      vertex -43.5 95.5 25.6667
      vertex -43.691 94.9122 35
      vertex -43.5 95.5 35
    endloop
  endfacet
  facet normal 0 1 -0
    outer loop
      vertex -44.191 94.5489 25
      vertex -44.809 94.5489 35
      vertex -44.191 94.5489 35
    endloop
  endfacet
  facet normal 0 1 0
    outer loop
      vertex -44.809 94.5489 35
      vertex -44.191 94.5489 25
      vertex -44.809 94.5489 25
    endloop
  endfacet
  facet normal 0.951056 0.309017 0
    outer loop
      vertex -45.309 94.9122 35
      vertex -45.5 95.5 25
      vertex -45.5 95.5 35
    endloop
  endfacet
  facet normal 0.951056 0.309017 0
    outer loop
      vertex -45.5 95.5 25
      vertex -45.309 94.9122 35
      vertex -45.309 94.9122 25
    endloop
  endfacet
  facet normal -0.759256 0 -0.650792
    outer loop
      vertex 47 92.5 21.5833
      vertex 46 97 22.75
      vertex 47 97 21.5833
    endloop
  endfacet
  facet normal -0.759256 0 -0.650792
    outer loop
      vertex 46 97 22.75
      vertex 44.0714 94.6358 25
      vertex 44.0714 95.0714 25
    endloop
  endfacet
  facet normal -0.759256 7.76144e-08 -0.650792
    outer loop
      vertex 46 97 22.75
      vertex 47 92.5 21.5833
      vertex 44.0714 94.6358 25
    endloop
  endfacet
  facet normal -0.759257 -8.6548e-07 -0.650791
    outer loop
      vertex 41.5 92.5 28
      vertex 44.0714 94.6358 25
      vertex 47 92.5 21.5833
    endloop
  endfacet
  facet normal -0.759258 2.74608e-06 -0.65079
    outer loop
      vertex 44.0714 94.6358 25
      vertex 41.5 92.5 28
      vertex 43.8191 94.8191 25.2944
    endloop
  endfacet
  facet normal -0.759257 2.60308e-06 -0.650791
    outer loop
      vertex 46 97 22.75
      vertex 44.0714 96.3642 25
      vertex 41.5 97 28
    endloop
  endfacet
  facet normal -0.759256 -0 -0.650792
    outer loop
      vertex 44.0714 96.3642 25
      vertex 46 97 22.75
      vertex 44.0714 95.0714 25
    endloop
  endfacet
  facet normal -0.759257 -4.55886e-07 -0.650791
    outer loop
      vertex 43.691 96.0878 25.4439
      vertex 41.5 97 28
      vertex 44.0714 96.3642 25
    endloop
  endfacet
  facet normal -0.759257 -1.07796e-06 -0.650791
    outer loop
      vertex 43.5 95.5 25.6667
      vertex 41.5 97 28
      vertex 43.691 96.0878 25.4439
    endloop
  endfacet
  facet normal -0.759257 9.0135e-07 -0.650791
    outer loop
      vertex 41.5 92.5 28
      vertex 43.5 95.5 25.6667
      vertex 43.691 94.9122 25.4439
    endloop
  endfacet
  facet normal -0.759257 0 -0.650791
    outer loop
      vertex 43.5 95.5 25.6667
      vertex 41.5 92.5 28
      vertex 41.5 97 28
    endloop
  endfacet
  facet normal -0.759255 -3.84391e-06 -0.650793
    outer loop
      vertex 41.5 92.5 28
      vertex 43.691 94.9122 25.4439
      vertex 43.8191 94.8191 25.2944
    endloop
  endfacet
  facet normal 0 -1 0
    outer loop
      vertex 41.5 92.5 28
      vertex 47 92.5 35
      vertex 41.5 92.5 35
    endloop
  endfacet
  facet normal 0 -1 -0
    outer loop
      vertex 47 92.5 35
      vertex 41.5 92.5 28
      vertex 47 92.5 21.5833
    endloop
  endfacet
  facet normal 0 0 0
    outer loop
      vertex 41.5 92.5 35
      vertex 47 92.5 35
      vertex 47.5 92.5 35
    endloop
  endfacet
  facet normal -1 0 0
    outer loop
      vertex 41.5 92.5 28
      vertex 41.5 97 35
      vertex 41.5 97 28
    endloop
  endfacet
  facet normal -1 -0 0
    outer loop
      vertex 41.5 97 35
      vertex 41.5 92.5 28
      vertex 41.5 92.5 35
    endloop
  endfacet
  facet normal -0 0 0
    outer loop
      vertex 41.5 97 35
      vertex 41.5 92.5 35
      vertex 41.5 98.5 35
    endloop
  endfacet
  facet normal 0 0 1
    outer loop
      vertex 47.5 98.5 35
      vertex 45.5 95.5 35
      vertex 47.5 92.5 35
    endloop
  endfacet
  facet normal 0 0 1
    outer loop
      vertex 47.5 98.5 35
      vertex 45.309 96.0878 35
      vertex 45.5 95.5 35
    endloop
  endfacet
  facet normal 0 0 1
    outer loop
      vertex 47.5 98.5 35
      vertex 44.809 96.4511 35
      vertex 45.309 96.0878 35
    endloop
  endfacet
  facet normal 0 0 1
    outer loop
      vertex 47.5 98.5 35
      vertex 44.191 96.4511 35
      vertex 44.809 96.4511 35
    endloop
  endfacet
  facet normal 0 0 1
    outer loop
      vertex 43.691 96.0878 35
      vertex 41.5 98.5 35
      vertex 43.5 95.5 35
    endloop
  endfacet
  facet normal 0 0 1
    outer loop
      vertex 44.191 96.4511 35
      vertex 41.5 98.5 35
      vertex 43.691 96.0878 35
    endloop
  endfacet
  facet normal -0 0 1
    outer loop
      vertex 41.5 98.5 35
      vertex 44.191 96.4511 35
      vertex 47.5 98.5 35
    endloop
  endfacet
  facet normal -0 0 1
    outer loop
      vertex 45.309 94.9122 35
      vertex 47.5 92.5 35
      vertex 45.5 95.5 35
    endloop
  endfacet
  facet normal -0 0 1
    outer loop
      vertex 44.809 94.5489 35
      vertex 47.5 92.5 35
      vertex 45.309 94.9122 35
    endloop
  endfacet
  facet normal -0 0 1
    outer loop
      vertex 44.191 94.5489 35
      vertex 47.5 92.5 35
      vertex 44.809 94.5489 35
    endloop
  endfacet
  facet normal 0 0 1
    outer loop
      vertex 41.5 92.5 35
      vertex 43.5 95.5 35
      vertex 41.5 98.5 35
    endloop
  endfacet
  facet normal 0 0 1
    outer loop
      vertex 44.191 94.5489 35
      vertex 41.5 92.5 35
      vertex 47.5 92.5 35
    endloop
  endfacet
  facet normal 0 0 1
    outer loop
      vertex 43.691 94.9122 35
      vertex 41.5 92.5 35
      vertex 44.191 94.5489 35
    endloop
  endfacet
  facet normal 0 0 1
    outer loop
      vertex 43.5 95.5 35
      vertex 41.5 92.5 35
      vertex 43.691 94.9122 35
    endloop
  endfacet
  facet normal 0.951056 0.309017 0
    outer loop
      vertex 43.691 94.9122 35
      vertex 43.5 95.5 25.6667
      vertex 43.5 95.5 35
    endloop
  endfacet
  facet normal 0.951056 0.309017 0
    outer loop
      vertex 43.5 95.5 25.6667
      vertex 43.691 94.9122 35
      vertex 43.691 94.9122 25.4439
    endloop
  endfacet
  facet normal 0 1 -0
    outer loop
      vertex 44.809 94.5489 25
      vertex 44.191 94.5489 35
      vertex 44.809 94.5489 35
    endloop
  endfacet
  facet normal 0 1 0
    outer loop
      vertex 44.191 94.5489 35
      vertex 44.809 94.5489 25
      vertex 44.191 94.5489 25
    endloop
  endfacet
  facet normal 0.587788 0.809015 0
    outer loop
      vertex 44.191 94.5489 35
      vertex 43.691 94.9122 25.4439
      vertex 43.691 94.9122 35
    endloop
  endfacet
  facet normal 0.587788 0.809015 -0
    outer loop
      vertex 44.191 94.5489 25
      vertex 43.691 94.9122 25.4439
      vertex 44.191 94.5489 35
    endloop
  endfacet
  facet normal 0.587824 0.808989 6.23213e-05
    outer loop
      vertex 43.691 94.9122 25.4439
      vertex 44.191 94.5489 25
      vertex 43.8191 94.8191 25.2944
    endloop
  endfacet
  facet normal 0.587776 0.809024 -3.09522e-05
    outer loop
      vertex 43.8191 94.8191 25.2944
      vertex 44.191 94.5489 25
      vertex 44.0714 94.6358 25
    endloop
  endfacet
  facet normal -0.587788 0.809015 0
    outer loop
      vertex 45.309 94.9122 25
      vertex 44.809 94.5489 35
      vertex 45.309 94.9122 35
    endloop
  endfacet
  facet normal -0.587788 0.809015 0
    outer loop
      vertex 44.809 94.5489 35
      vertex 45.309 94.9122 25
      vertex 44.809 94.5489 25
    endloop
  endfacet
  facet normal 0.587788 -0.809015 0
    outer loop
      vertex 43.691 96.0878 25.4439
      vertex 44.191 96.4511 35
      vertex 43.691 96.0878 35
    endloop
  endfacet
  facet normal 0.587776 -0.809024 -2.08522e-05
    outer loop
      vertex 44.191 96.4511 25
      vertex 43.691 96.0878 25.4439
      vertex 44.0714 96.3642 25
    endloop
  endfacet
  facet normal 0.587788 -0.809015 0
    outer loop
      vertex 43.691 96.0878 25.4439
      vertex 44.191 96.4511 25
      vertex 44.191 96.4511 35
    endloop
  endfacet
  facet normal -0.587788 -0.809015 0
    outer loop
      vertex 44.809 96.4511 25
      vertex 45.309 96.0878 35
      vertex 44.809 96.4511 35
    endloop
  endfacet
  facet normal -0.587788 -0.809015 -0
    outer loop
      vertex 45.309 96.0878 35
      vertex 44.809 96.4511 25
      vertex 45.309 96.0878 25
    endloop
  endfacet
  facet normal 0 0 1
    outer loop
      vertex 44.0714 95.0714 25
      vertex 45.5 95.5 25
      vertex 45.309 96.0878 25
    endloop
  endfacet
  facet normal 0 0 1
    outer loop
      vertex 44.0714 95.0714 25
      vertex 45.309 96.0878 25
      vertex 44.809 96.4511 25
    endloop
  endfacet
  facet normal 0 0 1
    outer loop
      vertex 45.5 95.5 25
      vertex 44.0714 95.0714 25
      vertex 45.309 94.9122 25
    endloop
  endfacet
  facet normal 0 0 1
    outer loop
      vertex 44.0714 96.3642 25
      vertex 44.809 96.4511 25
      vertex 44.191 96.4511 25
    endloop
  endfacet
  facet normal 0 0 1
    outer loop
      vertex 45.309 94.9122 25
      vertex 44.0714 95.0714 25
      vertex 44.809 94.5489 25
    endloop
  endfacet
  facet normal 0 0 1
    outer loop
      vertex 44.809 96.4511 25
      vertex 44.0714 96.3642 25
      vertex 44.0714 95.0714 25
    endloop
  endfacet
  facet normal 0 0 1
    outer loop
      vertex 44.809 94.5489 25
      vertex 44.0714 95.0714 25
      vertex 44.191 94.5489 25
    endloop
  endfacet
  facet normal 0 0 1
    outer loop
      vertex 44.191 94.5489 25
      vertex 44.0714 95.0714 25
      vertex 44.0714 94.6358 25
    endloop
  endfacet
  facet normal -0.951056 0.309017 0
    outer loop
      vertex 45.309 94.9122 25
      vertex 45.5 95.5 35
      vertex 45.5 95.5 25
    endloop
  endfacet
  facet normal -0.951056 0.309017 0
    outer loop
      vertex 45.5 95.5 35
      vertex 45.309 94.9122 25
      vertex 45.309 94.9122 35
    endloop
  endfacet
  facet normal 0.951056 -0.309017 0
    outer loop
      vertex 43.5 95.5 25.6667
      vertex 43.691 96.0878 35
      vertex 43.5 95.5 35
    endloop
  endfacet
  facet normal 0.951056 -0.309017 0
    outer loop
      vertex 43.691 96.0878 35
      vertex 43.5 95.5 25.6667
      vertex 43.691 96.0878 25.4439
    endloop
  endfacet
  facet normal 0 -1 0
    outer loop
      vertex 44.191 96.4511 25
      vertex 44.809 96.4511 35
      vertex 44.191 96.4511 35
    endloop
  endfacet
  facet normal 0 -1 -0
    outer loop
      vertex 44.809 96.4511 35
      vertex 44.191 96.4511 25
      vertex 44.809 96.4511 25
    endloop
  endfacet
  facet normal -0.951056 -0.309017 0
    outer loop
      vertex 45.5 95.5 25
      vertex 45.309 96.0878 35
      vertex 45.309 96.0878 25
    endloop
  endfacet
  facet normal -0.951056 -0.309017 0
    outer loop
      vertex 45.309 96.0878 35
      vertex 45.5 95.5 25
      vertex 45.5 95.5 35
    endloop
  endfacet
endsolid OpenSCAD_Model
